<svg xmlns="http://www.w3.org/2000/svg" width="100%" height="100%" viewBox="0 0 1200 350"><defs><linearGradient id="bg-grad" x1="0%" x2="100%" y1="0%" y2="100%"><stop offset="0%" stop-color="#0f172a"/><stop offset="50%" stop-color="#1e1b4b"/><stop offset="100%" stop-color="#311042"/></linearGradient><linearGradient id="title-grad" x1="0%" x2="100%" y1="0%" y2="0%"><stop offset="0%" stop-color="#38bdf8"/><stop offset="50%" stop-color="#818cf8"/><stop offset="100%" stop-color="#c084fc"/></linearGradient><linearGradient id="node-grad" x1="0%" x2="100%" y1="0%" y2="100%"><stop offset="0%" stop-color="#06b6d4"/><stop offset="100%" stop-color="#3b82f6"/></linearGradient><filter id="glow" width="140%" height="140%" x="-20%" y="-20%"><feGaussianBlur result="blur" stdDeviation="8"/><feComposite in="SourceGraphic" in2="blur" operator="over"/></filter><style>@keyframes pulse{0%{transform:scale(1);opacity:.6}50%{transform:scale(1.15);opacity:.9}}.subtitle-text,.tagline-text,.title-text{font-family:system-ui,-apple-system,&apos;Segoe UI&apos;,Roboto,Helvetica,Arial,sans-serif}.title-text{font-size:50px;font-weight:800;fill:url(#title-grad)}.subtitle-text{font-size:20px;font-weight:500;fill:#e2e8f0}.tagline-text{font-size:15px;font-weight:400;fill:#94a3b8}.dash-line{stroke-dasharray:8 6;animation:dash 20s linear infinite}</style></defs><rect width="1200" height="350" fill="url(#bg-grad)" rx="16"/><g stroke="#94a3b8" stroke-width="1" opacity=".15"><line x1="0" x2="1200" y1="70" y2="70"/><line x1="0" x2="1200" y1="140" y2="140"/><line x1="0" x2="1200" y1="210" y2="210"/><line x1="0" x2="1200" y1="280" y2="280"/><line x1="200" x2="200" y1="0" y2="350"/><line x1="400" x2="400" y1="0" y2="350"/><line x1="600" x2="600" y1="0" y2="350"/><line x1="800" x2="800" y1="0" y2="350"/><line x1="1000" x2="1000" y1="0" y2="350"/></g><g opacity=".35"><path fill="none" stroke="#6366f1" stroke-width="3" d="M 800 250 Q 900 100 1050 175 T 1180 80" class="dash-line"/><path fill="none" stroke="#38bdf8" stroke-width="2" d="M 750 120 Q 920 280 1100 150" class="dash-line"/><circle cx="950" cy="120" r="18" fill="#1e293b" stroke="#38bdf8" stroke-width="3"/><circle cx="1050" cy="175" r="24" fill="#1e293b" stroke="#818cf8" stroke-width="3"/><circle cx="900" cy="240" r="15" fill="#1e293b" stroke="#c084fc" stroke-width="3"/><circle cx="1120" cy="260" r="20" fill="#1e293b" stroke="#34d399" stroke-width="3"/><line x1="950" x2="1050" y1="120" y2="175" stroke="#818cf8" stroke-width="2" opacity=".7"/><line x1="900" x2="1050" y1="240" y2="175" stroke="#818cf8" stroke-width="2" opacity=".7"/><line x1="1050" x2="1120" y1="175" y2="260" stroke="#34d399" stroke-width="2" opacity=".7"/></g><circle cx="150" cy="80" r="120" fill="#38bdf8" filter="url(#glow)" opacity=".08"/><circle cx="1050" cy="200" r="150" fill="#c084fc" filter="url(#glow)" opacity=".1"/><g transform="translate(80, 0)"><rect width="230" height="32" x="0" y="55" fill="#1e293b" stroke="#6366f1" stroke-width="1.5" rx="16"/><text x="15" y="76" fill="#818cf8" font-family="system-ui, sans-serif" font-size="13" font-weight="600">📊 MLOPS &amp; ML METADATA</text><text x="0" y="145" class="title-text">Awesome ML Metadata Store</text><text x="0" y="195" class="subtitle-text">Curated Ecosystem of SaaS Platforms &amp; Open-Source Tools</text><text x="0" y="240" class="tagline-text">🧪 Experiment Tracking • 🏷️ Model Registry • 🌿 Lineage • 🔍 AI Observability</text><text x="0" y="265" class="tagline-text">⚡ MLflow • Weights &amp; Biases • ClearML • Arize Phoenix • DVC • Metaflow</text><g transform="translate(0, 295)"><rect width="130" height="26" x="0" y="0" fill="#0f172a" opacity=".8" rx="6"/><text x="10" y="17" fill="#38bdf8" font-family="sans-serif" font-size="12" font-weight="600">🌟 Top Frameworks</text><rect width="140" height="26" x="140" y="0" fill="#0f172a" opacity=".8" rx="6"/><text x="150" y="17" fill="#34d399" font-family="sans-serif" font-size="12" font-weight="600">⚡ Updated 2026</text></g></g></svg>